HIERARCHY
ROOT Hips
{
	OFFSET 0.00000 0.00000 0.00000
	CHANNELS 6 Xposition Yposition Zposition Zrotation Yrotation Xrotation 
	JOINT LHipJoint
	{
		OFFSET 0 0 0
		CHANNELS 3 Zrotation Yrotation Xrotation
		JOINT LeftHip
		{
			OFFSET 1.46561 -1.72757 0.83774
			CHANNELS 3 Zrotation Yrotation Xrotation
			JOINT LeftKnee
			{
				OFFSET 2.48915 -6.83890 0.00000
				CHANNELS 3 Zrotation Yrotation Xrotation
				JOINT LeftAnkle
				{
					OFFSET 2.60555 -7.15868 0.00000
					CHANNELS 3 Zrotation Yrotation Xrotation
					JOINT LeftToe
					{
						OFFSET 0.19248 -0.52884 2.26738
						CHANNELS 3 Zrotation Yrotation Xrotation
						End Site
						{
							OFFSET 0.00000 -0.00000 1.17015
						}
					}
				}
			}
		}
	}
	JOINT RHipJoint
	{
		OFFSET 0 0 0
		CHANNELS 3 Zrotation Yrotation Xrotation
		JOINT RightHip
		{
			OFFSET -1.46918 -1.72757 0.83774
			CHANNELS 3 Zrotation Yrotation Xrotation
			JOINT RightKnee
			{
				OFFSET -2.49034 -6.84216 0.00000
				CHANNELS 3 Zrotation Yrotation Xrotation
				JOINT RightAnkle
				{
					OFFSET -2.65971 -7.30750 0.00000
					CHANNELS 3 Zrotation Yrotation Xrotation
					JOINT RightToe
					{
						OFFSET -0.19227 -0.52827 2.30785
						CHANNELS 3 Zrotation Yrotation Xrotation
						End Site
						{
							OFFSET -0.00000 -0.00000 1.18972
						}
					}
				}
			}
		}
	}
	JOINT lowerback
	{
		OFFSET 0 0 0
		CHANNELS 3 Zrotation Yrotation Xrotation
		JOINT Chest
		{
			OFFSET 0.02432 2.19909 -0.28000
			CHANNELS 3 Zrotation Yrotation Xrotation
			JOINT Chest2
			{
				OFFSET 0.03714 2.21816 -0.15261
				CHANNELS 3 Zrotation Yrotation Xrotation
				JOINT lowerneck
				{
					OFFSET 0 0 0
					CHANNELS 3 Zrotation Yrotation Xrotation
					JOINT Neck
					{
						OFFSET -0.01896 1.56165 0.21681
						CHANNELS 3 Zrotation Yrotation Xrotation
						JOINT Head
						{
							OFFSET 0.02744 1.56009 0.06764
							CHANNELS 3 Zrotation Yrotation Xrotation
							End Site
							{
								OFFSET 0.01212 1.60574 0.00298
							}
						}
					}
				}
				JOINT LeftCollar
				{
					OFFSET 0 0 0
					CHANNELS 3 Zrotation Yrotation Xrotation
					JOINT LeftShoulder
					{
						OFFSET 3.05595 1.48048 -0.60794
CHANNELS 3 Zrotation Xrotation Yrotation
						JOINT LeftElbow
						{
OFFSET 0 -5.206070 -0.000000
CHANNELS 3 Zrotation Xrotation Yrotation
							JOINT LeftWrist
							{
OFFSET 0 -3.399610 0.000000
CHANNELS 3 Zrotation Xrotation Yrotation
								JOINT lhand
								{
									OFFSET 0 0 0
CHANNELS 3 Zrotation Xrotation Yrotation
									JOINT LFingers
									{
OFFSET 0 -0.519690 0.000000
CHANNELS 3 Zrotation Xrotation Yrotation
										End Site
										{
OFFSET 0 -0.418990 0.000000
										}
									}
								}
								JOINT LThumb
								{
OFFSET 0 0.000000 0.000000
CHANNELS 3 Zrotation Xrotation Yrotation
									End Site
									{
OFFSET 0 -0.425390 0.425390
									}
								}
							}
						}
					}
				}
				JOINT RightCollar
				{
					OFFSET 0 0 0
					CHANNELS 3 Zrotation Yrotation Xrotation
					JOINT RightShoulder
					{
						OFFSET -2.99052 1.57608 -0.69102
CHANNELS 3 Zrotation Xrotation Yrotation
						JOINT RightElbow
						{
OFFSET 0 -5.322140 0.000000
CHANNELS 3 Zrotation Xrotation Yrotation
							JOINT RightWrist
							{
OFFSET 0 -3.512080 0.000000
CHANNELS 3 Zrotation Xrotation Yrotation
								JOINT rhand
								{
									OFFSET 0 0 0
CHANNELS 3 Zrotation Xrotation Yrotation
									JOINT RFingers
									{
OFFSET 0 -0.586680 0.000000
CHANNELS 3 Zrotation Xrotation Yrotation
										End Site
										{
OFFSET 0 -0.473000 0.000000
										}
									}
								}
								JOINT RThumb
								{
OFFSET 0 0.000000 0.000000
CHANNELS 3 Zrotation Xrotation Yrotation
									End Site
									{
OFFSET 0 -0.480220 0.480220
									}
								}
							}
						}
					}
				}
			}
		}
	}
}
MOTION
Frames: 6
Frame Time: 0.008333333333333333
0.337100 17.618000 -13.790500 -0.942700 0.213600 7.932100 0.000000 0.000000 0.000000 -17.955100 1.605700 -14.205500 0.861100 5.917200 16.544500 0.368900 0.265600 -11.573300 0.013900 0.760000 2.088700 0.000000 0.000000 0.000000 19.021500 2.564500 -14.841100 -1.280000 -7.169900 20.219600 -0.540900 2.626900 -13.241300 -0.365700 -3.884700 10.752500 0.066900 -0.511200 -1.397300 1.651900 -0.747700 3.409000 1.628400 -0.400700 4.317000 -1.404600 0.353200 -10.167600 -0.035800 0.826600 30.335700 0.335800 0.207800 11.535700 -0.000000 0.000000 0.000000 2.025400 -9.139500 -28.890000 10.278400 -17.173800 1.556100 25.526800 -6.822900 4.568700 0.000000 0.000000 0.000000 -7.125000 0.000000 0.000000 -0.847300 24.919300 -0.411500 -0.000000 0.000000 0.000000 -3.649200 -6.943700 5.562000 -12.828100 -21.034800 -2.391200 -23.396900 43.805100 25.798300 0.000000 0.000000 0.000000 7.125000 0.000000 -0.000000 7.168800 57.611400 -2.221200
0.337341 17.616924 -13.787127 -0.950206 0.204273 7.878623 0.000000 0.000000 0.000000 -17.945926 1.644681 -14.146411 0.862165 5.920931 16.555183 0.371433 0.263897 -11.611532 0.013708 0.755999 2.077681 0.000000 0.000000 0.000000 19.030996 2.551833 -14.781992 -1.281549 -7.173979 20.231922 -0.542062 2.630364 -13.254991 -0.366664 -3.889510 10.766078 0.062591 -0.500370 -1.414938 1.649214 -0.732826 3.387234 1.628692 -0.393240 4.303965 -1.393758 0.362267 -10.271570 -0.026960 0.836288 30.272178 0.338589 0.214843 11.531853 0.000000 0.000000 0.000000 1.923880 -9.136604 -29.085970 10.282361 -17.180052 1.557304 25.623432 -6.813767 4.594333 0.000000 0.000000 0.000000 -7.125000 0.000000 0.000000 -0.775855 24.886264 -0.376452 0.000000 0.000000 0.000000 -3.665993 -6.945814 5.482010 -12.802342 -20.996873 -2.381989 -23.393343 43.854837 25.782114 0.000000 0.000000 0.000000 7.125000 0.000000 0.000000 7.165499 57.593874 -2.217109
0.337816 17.615448 -13.783316 -0.965420 0.198953 7.825381 0.000000 0.000000 0.000000 -17.927215 1.655098 -14.082393 0.865122 5.930855 16.584023 0.374876 0.284818 -11.672717 0.014184 0.768410 2.111709 0.000000 0.000000 0.000000 19.050729 2.525973 -14.718988 -1.282825 -7.177292 20.241723 -0.543425 2.631276 -13.272489 -0.360374 -3.856366 10.672969 0.061810 -0.494077 -1.446241 1.653609 -0.724599 3.367881 1.633886 -0.389191 4.301396 -1.393149 0.351126 -10.407758 -0.021146 0.820968 30.238905 0.339052 0.208756 11.546702 0.000000 0.000000 0.000000 1.817813 -9.111525 -29.051947 10.326637 -17.248848 1.570418 25.184757 -6.155569 4.231567 0.000000 0.000000 0.000000 -7.125000 0.000000 0.000000 -1.098700 25.305010 -0.522781 0.000000 0.000000 0.000000 -3.683680 -6.953914 5.413576 -12.781031 -20.965512 -2.374366 -23.418055 43.943657 25.818805 0.000000 0.000000 0.000000 7.125000 0.000000 0.000000 7.154872 57.637272 -2.221243
0.338603 17.614013 -13.779942 -0.988042 0.189319 7.774514 0.000000 0.000000 0.000000 -17.904471 1.691293 -14.032903 0.867895 5.940092 16.610669 0.377755 0.282567 -11.716198 0.013519 0.751166 2.064387 0.000000 0.000000 0.000000 19.074413 2.507647 -14.659972 -1.284227 -7.181120 20.253100 -0.544827 2.649000 -13.287823 -0.362594 -3.868109 10.705874 0.070565 -0.486941 -1.469280 1.657330 -0.715589 3.350009 1.633149 -0.384374 4.295583 -1.423009 0.344299 -10.534691 0.020593 0.807857 30.205360 0.358397 0.204629 11.559222 0.000000 0.000000 0.000000 1.741054 -9.057445 -29.458269 10.357491 -17.296795 1.579605 25.566920 -6.970083 4.594541 0.000000 0.000000 0.000000 -7.125000 0.000000 0.000000 -0.817760 24.888946 -0.397676 0.000000 0.000000 0.000000 -3.693873 -6.971078 5.360276 -12.753737 -20.925399 -2.364636 -23.431430 44.019339 25.829711 0.000000 0.000000 0.000000 7.125000 0.000000 0.000000 7.145122 57.651577 -2.220683
0.339225 17.612543 -13.776423 -1.003091 0.175598 7.721169 0.000000 0.000000 0.000000 -17.888385 1.716613 -13.976368 0.870852 5.950044 16.639498 0.380382 0.294802 -11.760897 0.013238 0.743706 2.043990 0.000000 0.000000 0.000000 19.091240 2.488434 -14.598545 -1.285811 -7.185364 20.265674 -0.546357 2.662224 -13.304776 -0.361243 -3.860897 10.685703 0.070289 -0.479168 -1.498991 1.658508 -0.705324 3.332657 1.634857 -0.379212 4.294125 -1.432526 0.340964 -10.657063 0.044453 0.800425 30.176754 0.368240 0.203121 11.572948 0.000000 0.000000 0.000000 1.664315 -9.017744 -29.694235 10.388013 -17.344280 1.588681 25.582087 -7.159996 4.636514 0.000000 0.000000 0.000000 -7.125000 0.000000 0.000000 -0.807300 24.841801 -0.393479 0.000000 0.000000 0.000000 -3.702267 -6.984178 5.305078 -12.729541 -20.889732 -2.355943 -23.453231 44.104525 25.837488 0.000000 0.000000 0.000000 7.125000 0.000000 0.000000 7.124839 57.664468 -2.216574
0.339838 17.610953 -13.772904 -1.015902 0.158650 7.667249 0.000000 0.000000 0.000000 -17.875433 1.740296 -13.917368 0.873555 5.958903 16.665169 0.382314 0.312224 -11.797646 0.012965 0.734721 2.019281 0.000000 0.000000 0.000000 19.105143 2.467959 -14.538303 -1.287582 -7.190243 20.280128 -0.547947 2.679053 -13.322077 -0.359789 -3.853173 10.664030 0.068113 -0.470929 -1.530596 1.657653 -0.694271 3.315993 1.635635 -0.373719 4.294400 -1.435176 0.339189 -10.779351 0.064462 0.794790 30.158316 0.375760 0.202665 11.590594 0.000000 0.000000 0.000000 1.598113 -8.977195 -29.937996 10.416795 -17.388987 1.597268 25.583852 -7.356331 4.669361 0.000000 0.000000 0.000000 -7.125000 0.000000 0.000000 -0.806691 24.805411 -0.393868 0.000000 0.000000 0.000000 -3.704903 -6.997943 5.251857 -12.706851 -20.856230 -2.347902 -23.472345 44.188416 25.838653 0.000000 0.000000 0.000000 7.125000 0.000000 0.000000 7.104535 57.669885 -2.211152
